<svg xmlns="http://www.w3.org/2000/svg" viewBox="318 388 850 245" role="img" aria-label="Base Quiz"><path fill="#F8F8F7" d="M426.418 575.68C399.889 574.974 382.73 572.41 361.454 553.851C344.296 538.884 334.74 517.237 333.491 494.591C332.138 471.315 340.19 448.471 355.837 431.19C372.068 413.315 394.463 403.879 418.343 402.887C470.378 400.726 512.362 436.864 514.595 489.466C514.696 491.709 514.775 493.137 515.108 495.351C516.429 496.197 516.367 496.261 517.887 496.541C521.641 495.457 535.275 495.856 539.909 495.914C526.005 514.983 511.081 533.283 496.126 551.532C491.032 557.748 482.579 570.304 474.871 572.14C471.799 574.324 469.647 575.3 468.802 578.974C474.183 616.019 437.399 584.091 426.418 575.68Z"/><path fill="#0974FE" d="M426.418 575.68C399.889 574.974 382.73 572.41 361.454 553.851C344.296 538.884 334.74 517.237 333.491 494.591C332.138 471.315 340.19 448.471 355.837 431.19C372.068 413.315 394.463 403.879 418.343 402.887C470.378 400.726 512.362 436.864 514.595 489.466C503.449 500.32 491.179 509.215 478.82 518.637C484.982 499.739 487.448 483.04 478.021 464.265C470.732 450.026 458.095 439.259 442.881 434.327C425.708 428.685 409.215 431.283 393.337 438.78C364.043 452.611 355.891 491.563 370.513 518.81C384.731 545.302 409.581 550.972 436.892 546.234C448.017 556.735 458.387 567.776 468.802 578.974C474.183 616.019 437.399 584.091 426.418 575.68Z"/><path fill="#0974FE" d="M517.887 496.541C521.641 495.457 535.275 495.856 539.909 495.914C526.005 514.983 511.081 533.283 496.126 551.532C491.032 557.748 482.579 570.304 474.871 572.14C467.025 568.005 437.228 534.795 429.388 526.39C435.31 520.777 441.912 515.942 448.502 511.165C456.239 519.06 463.571 526.856 472.121 533.875C486.684 521.305 502.989 509.226 517.887 496.541Z"/><path fill="#0974FE" d="M426.002 439.258C433.268 439.619 441.707 441.898 448.193 445.136C460.762 451.372 470.335 462.352 474.801 475.656C480.355 492.403 476.585 506.666 468.901 521.806C464.696 517.996 455.028 505.357 450.329 505.292C442.562 505.185 430.611 515.231 425.201 520.67C417.097 528.817 429.997 533.144 430.253 539.883C401.889 543.915 382.749 531.835 372.149 505.512C386.359 505.844 397.439 505.625 411.4 503.058C415.877 506.089 428.488 510.756 428.714 500.669C428.83 495.498 422.722 490.644 419.017 487.242C429.711 478.054 437.68 474.528 426.345 461.809C425.89 454.882 426.047 446.317 426.002 439.258Z"/><path fill="#0974FE" d="M413.668 439.781C415.464 439.544 415.746 439.425 417.547 439.94C420.401 443.756 419.281 456.629 419.209 461.912L405.622 472.835C402.043 472.726 398.137 472.116 394.556 471.643C392.243 473.697 389.771 476.132 387.494 478.276L383.212 477.046L372.742 473.812C381.13 454.326 392.674 443.592 413.668 439.781Z"/><path fill="#0974FE" d="M371.305 480.646C378.475 482.762 406.823 490.386 410.822 495.546L410.079 496.613C398.34 497.76 382.91 497.788 370.844 498.085C370.861 492.444 371.146 486.323 371.305 480.646Z"/><path fill="#0974FE" d="M415.053 476.942C416.181 477.323 415.877 477.306 416.829 478.274C416.109 482.193 413.201 483.673 409.911 486.026L407.792 484.342L407.683 482.756C409.347 480.006 412.218 478.688 415.053 476.942Z"/><path fill="#F8F8F7" d="M921.434 469.948C976.297 468.173 969.997 471.597 968.563 522.95C971.211 526.338 972.517 527.511 975.764 530.395L960.926 530.766C956.543 529.669 954.476 526.752 951.606 523.435C942.374 523.549 918.387 525.01 911.086 519.88C904.884 515.522 905.67 486.843 908.3 479.578C910.714 472.911 914.855 471.041 921.434 469.948ZM938.397 512.409C936.894 510.276 935.821 509.254 935.718 506.687C938.155 502.755 943.766 504.092 947.824 504.852C949.876 507.263 952.641 510.884 955.268 512.383L956.139 512.268C956.521 491.08 962.508 479.734 936.641 480.595C932.249 480.778 927.856 480.92 923.462 481.02C921.736 482.159 920.114 482.767 919.845 485.064C919.14 491.09 918.191 504.803 920.414 510.058C924.296 513.557 933.064 512.525 938.397 512.409Z"/><path fill="#F8F8F7" d="M572.325 469.985C575.938 469.945 579.839 469.765 583.443 469.87C602.323 470.42 643.615 463.642 627.478 497.392C631.699 505.787 634.318 510.395 627.378 518.676C618.056 525.647 584.806 523.113 571.701 522.943C571.919 505.595 571.58 487.148 572.325 469.985ZM583.833 491.854C593.176 492.092 603.978 492.297 613.28 491.24C615.647 489.95 616.232 489.737 617.852 487.619C618.994 478.014 590.949 480.226 585.184 480.549L583.969 481.369C583.866 484.863 583.821 488.358 583.833 491.854ZM614.836 511.327C617.43 509.613 616.587 510.569 617.908 507.558C616.47 499.426 593.81 501.91 587.082 502.113C583.155 504.344 584.26 508.062 584.309 512.41C591.404 512.435 608.755 512.934 614.836 511.327Z"/><path fill="#F8F8F7" d="M790.544 470.114L847.359 470.126L847.376 480.863C832.49 480.696 817.602 480.722 802.717 480.942C803.076 484.804 802.938 487.188 802.747 491.078C815.932 491.14 829.22 491.338 842.387 490.791L842.321 501.245L821.062 501.071C815.142 501.034 809.032 501.17 803.095 501.231L803.06 512.426L847.581 512.424C847.684 516.022 847.649 519.838 847.677 523.458C828.723 523.484 809.219 523.736 790.31 523.305C790.707 505.909 790.48 487.585 790.544 470.114Z"/><path fill="#F8F8F7" d="M726.855 470.427C740.429 469.811 757.148 470.248 770.956 470.246L771.07 480.85C760.026 480.214 747.579 480.455 736.418 480.436C731.966 480.428 727.825 483.107 728.556 488.192C734.195 494.626 755.08 488.532 764.62 492.176C781.344 498.566 782.966 515.025 765.691 522.945C757.842 523.695 727.026 523.815 719.011 523.135L719.071 512.391C731.799 512.467 744.88 512.624 757.622 512.244C762.094 512.111 765.647 509.061 764.674 504.264C757.287 496.779 721.618 509.324 715.945 492.644C714.182 487.46 715.224 484.017 716.164 478.948C719.844 474.069 721.266 472.851 726.855 470.427Z"/><path fill="#F8F8F7" d="M1092.1 469.62C1110.78 469.167 1131.62 469.711 1150.46 469.786L1150.44 482.139C1143.64 488.037 1116.1 507.627 1108.79 512.209C1122.62 512.482 1137.19 512.263 1151.09 512.276L1150.91 522.912C1144.14 522.926 1094.82 524.457 1091.8 521.884C1090.71 520.953 1090.32 519.951 1090.4 518.522C1090.96 509.081 1124.56 487.831 1132.85 480.989C1119.48 480.61 1105.37 480.761 1091.94 480.708L1092.1 469.62Z"/><path fill="#F8F8F7" d="M666.616 470.415C671.099 470.147 676.471 470.277 681.027 470.275C689.227 487.79 698.672 505.326 707.187 522.921C702.97 522.959 698.753 522.929 694.536 522.831C692.854 519.588 690.97 514.949 689.456 511.518L677.062 511.522C670.581 511.448 664.098 511.525 657.619 511.751C656.018 514.198 653.306 519.872 651.865 522.677C646.885 523.537 643.523 523.451 638.524 523.467C644.061 511.229 659.161 482.314 666.616 470.415ZM675.937 502.078L683.558 501.966C682.104 498.757 675.937 484.548 673.69 482.811C669.934 489.261 666.819 495.645 663.273 502.127L675.937 502.078Z"/><path fill="#F8F8F7" d="M1032.65 470.282L1044.05 470.055L1044.21 479.179C1044.03 487.388 1046.1 512.168 1041.6 518.006C1035.85 525.472 992.795 526.136 987.297 518.25C982.223 510.972 984.31 480.653 984.403 470.248L995.867 470.358C995.682 478.911 994.454 504.577 996.487 511.059C1000.13 514.222 1025.54 514.475 1029.93 509.635C1031.4 508.018 1033.07 505.316 1033.08 503.113C1033.12 492.147 1032.61 481.3 1032.65 470.282Z"/><path fill="#F8F8F7" d="M1066.25 469.96L1075.87 470.254C1074.56 487.347 1076.53 505.281 1075.3 522.4C1075.25 523.113 1074.64 523.223 1074 523.655L1063.84 523.49C1063.81 516.267 1063.01 474.239 1064.41 470.466L1066.25 469.96Z"/><path fill="#F8F8F7" d="M859.469 512.349L896.091 512.18L896.083 523.357C887.631 523.957 868.42 523.463 859.466 523.191L859.469 512.349Z"/></svg>
