<svg xmlns="http://www.w3.org/2000/svg" viewBox="245 215 590 550" role="img" aria-label="Base Quiz"><path fill="#0067FE" d="M501.113 239.23C501.569 239.22 502.025 239.213 502.481 239.207C567.984 237.893 631.315 262.71 678.486 308.177C722.134 350.562 747.028 408.635 747.629 469.473C743.457 472.916 738.269 476.64 733.802 479.7C710.658 495.553 688.243 513.979 664.951 529.471C671.571 508.306 675.987 499.762 676.63 475.489C677.747 433.408 661.14 389.867 631.405 359.722C599.482 327.438 556.064 309.125 510.664 308.795C463.842 308.622 421.167 325.074 387.834 358.355C358.647 387.46 342.198 426.953 342.095 468.171C342.142 508.403 358.175 544.426 386.502 572.661C432.851 616.437 488.308 626.771 549.994 616.678C553.165 618.504 569.783 636.152 573.955 640.937C582.145 650.33 612.353 678.985 616.865 688.679C618.546 692.291 618.537 726.195 617.961 730.518C617.697 732.597 617.048 734.609 616.046 736.45C606.321 754.023 585.694 735.178 575.251 728.001L543.17 705.968C535.861 700.941 527.829 695.156 520.225 690.754C499.764 690.98 478.066 690.57 457.91 686.626C353.216 666.135 273.778 582.361 269.581 474.496C267.507 415.882 288.993 358.878 329.242 316.217C373.865 268.116 435.906 241.718 501.113 239.23Z"/><path fill="#0067FE" d="M518.501 330.329C522.508 331.286 531.524 332.262 536.334 333.135C552.485 335.962 568.081 341.351 582.532 349.098C657.78 390.101 673.9 475.97 634.371 548.049C633.178 546.832 631.948 545.651 630.684 544.508C622.169 536.837 613.574 529.256 604.9 521.765C599.278 516.888 590.662 508.758 584.182 505.659C579.917 503.597 575.178 502.708 570.455 503.084C558.805 503.899 518.104 542.367 507.352 551.997C493.461 564.44 525.242 592.002 535.011 599.876C521.683 601.249 504.099 601.526 490.881 599.75C475.557 598.333 456.474 592.717 442.5 586.403C409.263 571.23 383.362 543.547 370.431 509.375C403.409 510.092 436.959 508.999 469.995 509.508C483.251 509.545 486.153 518.795 500.601 514.151C526.243 505.908 525.784 473.385 503.345 462.491C494.677 458.283 487.344 460.15 478.705 463.295C444.831 441.69 464.787 435.767 488.411 423.274C494.98 429.54 500.94 434.269 510.826 432.978C518.01 432.078 524.491 428.218 528.705 422.331C538.918 407.927 532.401 393.004 518.761 384.165C519.313 367.565 518.593 347.324 518.501 330.329Z"/><path fill="#0067FE" d="M769.474 489.731C774.462 489.762 779.603 489.797 784.591 489.844C792.986 489.923 807.574 489.192 797.241 501.682C788.354 512.426 779.088 522.947 769.944 533.516L722.109 589.043L673.875 645.179C666.831 653.336 659.928 661.637 652.817 669.625C647.752 675.315 639.125 678.733 632.511 673.865C625.049 668.374 617.21 659.218 610.779 652.44L573.972 613.68C566.821 606.144 530.256 571.809 529.143 564.864C528.715 562.195 529.966 559.297 531.583 557.24C535.753 551.932 560.024 531.319 565.934 527.591C568.106 526.221 570.471 525.208 573.054 525.012C575.405 524.833 577.677 525.321 579.718 526.498C587.312 530.879 594.152 538.456 600.641 544.356L635.538 576.021L718.604 515.239C728.918 507.69 742.1 497.114 753.22 490.704C755.231 489.545 766.282 489.818 769.474 489.731Z"/><path fill="#0067FE" d="M498.139 331.203L498.841 331.333C499.996 334.115 499.539 377.287 499.554 383.503C487.9 389.56 484.69 393.703 482.046 406.726C472.852 410.318 463.805 415.529 454.995 420.112C439.068 408.704 421.013 409.058 412.421 429.035L380.125 429.003L369.851 429.012C375.921 410.973 383.159 396.896 395.833 382.428C421.859 352.547 458.622 334.14 498.139 331.203Z"/><path fill="#0067FE" d="M364.627 448.013L413.499 447.976C422.538 461.418 429.644 462.438 444.731 460.956C450.362 465.064 459.92 473.254 465.023 477.832C465.288 480.347 466.156 487.675 464.844 489.652L464.022 489.743C439.898 490.703 414.877 488.646 390.659 489.528C381.993 489.844 373.101 489.868 364.428 489.964C362.688 477.442 361.98 460.168 364.627 448.013Z"/><path fill="#030104" fill-opacity="0.011764706" d="M516.986 615.721C518.13 616.195 519.523 616.58 520.761 616.572L520.89 616.815C519.674 617.073 519.053 617.309 517.801 617.209L516.929 617.639L516.806 618.116L516.063 617.988L516.147 617.417C514.804 617.372 514.731 617.25 513.453 616.755C514.651 615.66 515.005 615.977 516.986 615.721Z"/></svg>
